<svg xmlns="http://www.w3.org/2000/svg" xmlns:xlink="http://www.w3.org/1999/xlink" width="500" zoomAndPan="magnify" viewBox="0 0 375 374.999991" height="500" preserveAspectRatio="xMidYMid meet" version="1.0"><defs><g/><clipPath id="a1ddc85d67"><path d="M 100.464844 118.832031 L 180 118.832031 L 180 224.582031 L 100.464844 224.582031 Z M 100.464844 118.832031 " clip-rule="nonzero"/></clipPath><clipPath id="310a7abd56"><path d="M 142 118.832031 L 274.464844 118.832031 L 274.464844 224.582031 L 142 224.582031 Z M 142 118.832031 " clip-rule="nonzero"/></clipPath></defs><g clip-path="url(#a1ddc85d67)"><path fill="#1c191a" d="M 160.304688 169.84375 L 179.316406 169.84375 L 160.304688 118.871094 L 139.949219 118.871094 L 121.398438 168.613281 L 100.457031 224.753906 L 119.464844 224.753906 L 140.402344 168.613281 L 150.125 142.546875 L 160.304688 169.84375 " fill-opacity="1" fill-rule="nonzero"/></g><g clip-path="url(#310a7abd56)"><path fill="#19a2dd" d="M 221.59375 118.871094 L 171.8125 118.871094 L 200.289062 195.230469 L 219.296875 195.230469 L 197.460938 136.679688 L 221.59375 136.679688 C 241 136.679688 256.730469 152.410156 256.730469 171.8125 C 256.730469 191.214844 241 206.945312 221.59375 206.945312 L 193.152344 206.945312 L 187.980469 193.078125 L 183.6875 181.566406 L 148.839844 181.566406 L 142.882812 199.375 L 171.320312 199.375 L 180.789062 224.753906 L 222.464844 224.753906 L 222.460938 224.746094 C 251.300781 224.28125 274.539062 200.761719 274.539062 171.8125 C 274.539062 142.574219 250.835938 118.871094 221.59375 118.871094 " fill-opacity="1" fill-rule="nonzero"/></g><g fill="#1c191a" fill-opacity="1"><g transform="translate(99.302524, 251.950589)"><g><path d="M 9.828125 -3.125 L 3.1875 -3.125 L 1.8125 0 L -0.015625 0 L 5.640625 -12.484375 L 7.40625 -12.484375 L 13.0625 0 L 11.203125 0 Z M 9.203125 -4.546875 L 6.5 -10.65625 L 3.8125 -4.546875 Z M 9.203125 -4.546875 "/></g></g></g><g fill="#1c191a" fill-opacity="1"><g transform="translate(113.936658, 251.950589)"><g><path d="M 12.609375 -12.484375 L 12.609375 0 L 11.140625 0 L 3.65625 -9.3125 L 3.65625 0 L 1.875 0 L 1.875 -12.484375 L 3.328125 -12.484375 L 10.828125 -3.171875 L 10.828125 -12.484375 Z M 12.609375 -12.484375 "/></g></g></g><g fill="#1c191a" fill-opacity="1"><g transform="translate(129.996726, 251.950589)"><g><path d="M 7.5 0.140625 C 6.238281 0.140625 5.101562 -0.132812 4.09375 -0.6875 C 3.082031 -1.238281 2.289062 -2 1.71875 -2.96875 C 1.144531 -3.945312 0.859375 -5.035156 0.859375 -6.234375 C 0.859375 -7.441406 1.144531 -8.53125 1.71875 -9.5 C 2.289062 -10.476562 3.082031 -11.242188 4.09375 -11.796875 C 5.101562 -12.347656 6.238281 -12.625 7.5 -12.625 C 8.75 -12.625 9.878906 -12.347656 10.890625 -11.796875 C 11.898438 -11.242188 12.691406 -10.484375 13.265625 -9.515625 C 13.835938 -8.546875 14.125 -7.453125 14.125 -6.234375 C 14.125 -5.023438 13.835938 -3.9375 13.265625 -2.96875 C 12.691406 -2 11.898438 -1.238281 10.890625 -0.6875 C 9.878906 -0.132812 8.75 0.140625 7.5 0.140625 Z M 7.5 -1.4375 C 8.414062 -1.4375 9.238281 -1.644531 9.96875 -2.0625 C 10.707031 -2.476562 11.285156 -3.050781 11.703125 -3.78125 C 12.128906 -4.519531 12.34375 -5.335938 12.34375 -6.234375 C 12.34375 -7.140625 12.128906 -7.957031 11.703125 -8.6875 C 11.285156 -9.414062 10.707031 -9.988281 9.96875 -10.40625 C 9.238281 -10.820312 8.414062 -11.03125 7.5 -11.03125 C 6.59375 -11.03125 5.765625 -10.820312 5.015625 -10.40625 C 4.273438 -9.988281 3.691406 -9.414062 3.265625 -8.6875 C 2.847656 -7.957031 2.640625 -7.140625 2.640625 -6.234375 C 2.640625 -5.335938 2.847656 -4.519531 3.265625 -3.78125 C 3.691406 -3.050781 4.273438 -2.476562 5.015625 -2.0625 C 5.765625 -1.644531 6.59375 -1.4375 7.5 -1.4375 Z M 7.5 -1.4375 "/></g></g></g><g fill="#1c191a" fill-opacity="1"><g transform="translate(146.555871, 251.950589)"><g><path d="M 13.4375 0 L 13.421875 -9.09375 L 8.921875 -1.515625 L 8.09375 -1.515625 L 3.578125 -9.03125 L 3.578125 0 L 1.875 0 L 1.875 -12.484375 L 3.328125 -12.484375 L 8.546875 -3.703125 L 13.671875 -12.484375 L 15.140625 -12.484375 L 15.15625 0 Z M 13.4375 0 "/></g></g></g><g fill="#1c191a" fill-opacity="1"><g transform="translate(165.164801, 251.950589)"><g><path d="M 9.828125 -3.125 L 3.1875 -3.125 L 1.8125 0 L -0.015625 0 L 5.640625 -12.484375 L 7.40625 -12.484375 L 13.0625 0 L 11.203125 0 Z M 9.203125 -4.546875 L 6.5 -10.65625 L 3.8125 -4.546875 Z M 9.203125 -4.546875 "/></g></g></g><g fill="#1c191a" fill-opacity="1"><g transform="translate(179.798933, 251.950589)"><g><path d="M 1.875 -12.484375 L 3.65625 -12.484375 L 3.65625 -1.546875 L 10.40625 -1.546875 L 10.40625 0 L 1.875 0 Z M 1.875 -12.484375 "/></g></g></g><g fill="#1c191a" fill-opacity="1"><g transform="translate(191.973329, 251.950589)"><g><path d="M 6.65625 -4.3125 L 6.65625 0 L 4.890625 0 L 4.890625 -4.34375 L -0.078125 -12.484375 L 1.84375 -12.484375 L 5.828125 -5.90625 L 9.84375 -12.484375 L 11.609375 -12.484375 Z M 6.65625 -4.3125 "/></g></g></g><g fill="#1c191a" fill-opacity="1"><g transform="translate(205.092411, 251.950589)"><g/></g></g><g fill="#1c191a" fill-opacity="1"><g transform="translate(211.473957, 251.950589)"><g><path d="M 9.828125 -3.125 L 3.1875 -3.125 L 1.8125 0 L -0.015625 0 L 5.640625 -12.484375 L 7.40625 -12.484375 L 13.0625 0 L 11.203125 0 Z M 9.203125 -4.546875 L 6.5 -10.65625 L 3.8125 -4.546875 Z M 9.203125 -4.546875 "/></g></g></g><g fill="#1c191a" fill-opacity="1"><g transform="translate(226.108088, 251.950589)"><g><path d="M 7.046875 0.140625 C 5.378906 0.140625 4.082031 -0.332031 3.15625 -1.28125 C 2.226562 -2.226562 1.765625 -3.597656 1.765625 -5.390625 L 1.765625 -12.484375 L 3.546875 -12.484375 L 3.546875 -5.453125 C 3.546875 -2.773438 4.71875 -1.4375 7.0625 -1.4375 C 8.195312 -1.4375 9.066406 -1.765625 9.671875 -2.421875 C 10.285156 -3.085938 10.59375 -4.097656 10.59375 -5.453125 L 10.59375 -12.484375 L 12.3125 -12.484375 L 12.3125 -5.390625 C 12.3125 -3.585938 11.847656 -2.210938 10.921875 -1.265625 C 9.992188 -0.328125 8.703125 0.140625 7.046875 0.140625 Z M 7.046875 0.140625 "/></g></g></g><g fill="#1c191a" fill-opacity="1"><g transform="translate(241.793851, 251.950589)"><g><path d="M 1.875 -12.484375 L 7.125 -12.484375 C 8.445312 -12.484375 9.617188 -12.21875 10.640625 -11.6875 C 11.660156 -11.164062 12.453125 -10.429688 13.015625 -9.484375 C 13.585938 -8.546875 13.875 -7.460938 13.875 -6.234375 C 13.875 -5.015625 13.585938 -3.929688 13.015625 -2.984375 C 12.453125 -2.035156 11.660156 -1.300781 10.640625 -0.78125 C 9.617188 -0.257812 8.445312 0 7.125 0 L 1.875 0 Z M 7.03125 -1.546875 C 8.039062 -1.546875 8.925781 -1.742188 9.6875 -2.140625 C 10.457031 -2.535156 11.050781 -3.082031 11.46875 -3.78125 C 11.882812 -4.488281 12.09375 -5.304688 12.09375 -6.234375 C 12.09375 -7.160156 11.882812 -7.976562 11.46875 -8.6875 C 11.050781 -9.394531 10.457031 -9.941406 9.6875 -10.328125 C 8.925781 -10.722656 8.039062 -10.921875 7.03125 -10.921875 L 3.65625 -10.921875 L 3.65625 -1.546875 Z M 7.03125 -1.546875 "/></g></g></g><g fill="#1c191a" fill-opacity="1"><g transform="translate(258.103455, 251.950589)"><g><path d="M 1.875 -12.484375 L 3.65625 -12.484375 L 3.65625 0 L 1.875 0 Z M 1.875 -12.484375 "/></g></g></g><g fill="#1c191a" fill-opacity="1"><g transform="translate(265.215786, 251.950589)"><g><path d="M 4.34375 -10.921875 L 0.078125 -10.921875 L 0.078125 -12.484375 L 10.390625 -12.484375 L 10.390625 -10.921875 L 6.109375 -10.921875 L 6.109375 0 L 4.34375 0 Z M 4.34375 -10.921875 "/></g></g></g></svg>