<svg xmlns="http://www.w3.org/2000/svg" xmlns:xlink="http://www.w3.org/1999/xlink" width="500" zoomAndPan="magnify" viewBox="0 0 375 374.999991" height="500" preserveAspectRatio="xMidYMid meet" version="1.0"><defs><clipPath id="e8d6fa01b7"><path d="M 100.464844 118.832031 L 180 118.832031 L 180 224.582031 L 100.464844 224.582031 Z M 100.464844 118.832031 " clip-rule="nonzero"/></clipPath><clipPath id="4fca954dbc"><path d="M 142 118.832031 L 274.464844 118.832031 L 274.464844 224.582031 L 142 224.582031 Z M 142 118.832031 " clip-rule="nonzero"/></clipPath></defs><g clip-path="url(#e8d6fa01b7)"><path fill="#1c191a" d="M 160.304688 169.84375 L 179.316406 169.84375 L 160.304688 118.871094 L 139.949219 118.871094 L 121.398438 168.613281 L 100.457031 224.753906 L 119.464844 224.753906 L 140.402344 168.613281 L 150.125 142.546875 L 160.304688 169.84375 " fill-opacity="1" fill-rule="nonzero"/></g><g clip-path="url(#4fca954dbc)"><path fill="#19a2dd" d="M 221.59375 118.871094 L 171.8125 118.871094 L 200.289062 195.230469 L 219.296875 195.230469 L 197.460938 136.679688 L 221.59375 136.679688 C 241 136.679688 256.730469 152.410156 256.730469 171.8125 C 256.730469 191.214844 241 206.945312 221.59375 206.945312 L 193.152344 206.945312 L 187.980469 193.078125 L 183.6875 181.566406 L 148.839844 181.566406 L 142.882812 199.375 L 171.320312 199.375 L 180.789062 224.753906 L 222.464844 224.753906 L 222.460938 224.746094 C 251.300781 224.28125 274.539062 200.761719 274.539062 171.8125 C 274.539062 142.574219 250.835938 118.871094 221.59375 118.871094 " fill-opacity="1" fill-rule="nonzero"/></g></svg>